Coordinates
version=1
nRows=17
nColumns=36
inDegrees=yes

Units are S.I. units (second, meters, Newtons, ...)
If the header above contains a line with 'inDegrees', this indicates whether rotational values are in degrees (yes) or radians (no).

endheader
time	pelvis_tilt	pelvis_list	pelvis_rotation	pelvis_tx	pelvis_ty	pelvis_tz	hip_flexion_r	hip_adduction_r	hip_rotation_r	knee_angle_r	knee_angle_r_beta	ankle_angle_r	subtalar_angle_r	mtp_angle_r	hip_flexion_l	hip_adduction_l	hip_rotation_l	knee_angle_l	knee_angle_l_beta	ankle_angle_l	subtalar_angle_l	mtp_angle_l	lumbar_extension	lumbar_bending	lumbar_rotation	arm_flex_r	arm_add_r	arm_rot_r	elbow_flex_r	pro_sup_r	arm_flex_l	arm_add_l	arm_rot_l	elbow_flex_l	pro_sup_l
      0.00000000	      4.06622060	      0.17637126	     -0.15763722	     -0.07270607	      1.35914541	     -0.09988961	     -6.15463166	     -0.47247787	      1.78442927	      1.09309359	      0.01907808	     10.88497171	     -1.22822059	     -7.08801621	     -8.03766913	     -0.11723730	      4.20282940	      2.88550823	      0.05036162	      8.98511013	     -6.51883842	     -7.08801621	     -9.09891455	     -0.07953918	      1.24250026	     -1.09817983	    -11.07874378	      7.42002384	     20.76401437	     86.07593325	     -1.25777657	    -11.49663861	      8.20844842	     22.20316873	     85.12240036
      0.01666670	      3.75634290	      0.19631502	     -0.17190163	     -0.07244821	      1.35575768	     -0.10081131	     -5.80623559	     -0.51460188	      4.04943176	      1.18088043	      0.02061025	     13.03521680	      0.04590855	     -7.12885548	     -7.53668106	      0.11071430	      4.32115001	      3.14090388	      0.05481911	      9.17323157	     -7.66797576	     -7.12885548	     -8.78282279	     -0.11423178	      1.97084701	     -1.80380608	    -11.04662761	      7.60861245	     20.14051924	     86.09424214	     -1.41005438	    -10.64774115	      7.74484269	     20.35219388	     84.93481470
      0.03333330	      3.91148547	      0.04668808	     -0.55928829	     -0.07420076	      1.36342682	     -0.10070204	     -5.92671957	     -0.36893058	      5.05130464	      1.25427137	      0.02189117	     12.54108199	      0.27606447	     -7.13943098	     -7.99551118	      0.01392183	      4.23458713	      2.37986327	      0.04153645	      8.84509661	     -7.61612285	     -7.13943098	     -9.30614078	      0.09676328	      2.63520362	     -1.60903489	    -11.04920093	      7.51022673	     19.34004939	     86.08187492	     -0.21183563	    -10.09033193	      7.27945412	     19.03736644	     84.82112027
      0.05000000	      3.54323078	      0.08031858	     -0.55884728	     -0.07575036	      1.36184419	     -0.10094819	     -5.24437524	     -0.50347482	      4.73419239	      1.77066158	      0.03090387	     12.63649604	      0.96590541	     -7.33121984	     -7.60326326	      0.04266932	      3.91674813	      2.60184330	      0.04541073	      8.56277021	     -7.39385836	     -7.33121984	     -8.94001118	      0.14728918	      2.99314863	     -1.83346732	    -11.13975908	      9.03823842	     18.88530253	     82.20521817	      0.70086062	     -9.81329253	      8.69956551	     17.73761570	     81.66452053
      0.06666670	      4.00949312	      0.09938362	     -0.82150230	     -0.07794010	      1.36233565	     -0.10112332	     -5.56413395	     -0.53641587	      4.95952319	      2.24373165	      0.03916050	     12.82399994	      1.29842615	     -7.36890934	     -7.85845906	      0.12348776	      3.52480365	      2.94940726	      0.05147687	      8.27161065	     -7.94200760	     -7.36890934	     -9.72234865	      0.15294464	      3.31644939	     -1.75145246	    -11.14384024	      8.91332130	     19.03758501	     79.87683444	      0.91144268	     -9.60810724	      8.24337080	     18.26340054	     79.34293268
      0.08333330	      4.05013196	      0.18435350	     -1.20834663	     -0.07856115	      1.35842171	     -0.10060970	     -5.30109928	     -0.66407767	      5.04486086	      2.86066291	      0.04992799	     13.06735008	      1.61384790	     -7.36591612	     -7.79672829	      0.30452139	      2.96114075	      3.21163600	      0.05605362	      8.57075343	     -7.40227093	     -7.36591612	     -9.77143528	      0.11636446	      3.78254261	     -1.58529565	    -11.02660041	      9.04458687	     18.31575561	     80.20377647	      1.36103109	     -9.33810178	      7.91341398	     17.42765831	     79.62485274
      0.10000000	      4.31432555	      0.29633591	     -1.51372064	     -0.07984039	      1.35614967	     -0.10038214	     -5.41975694	     -0.83057116	      5.21936439	      3.20575964	      0.05595106	     13.16438204	      1.71576412	     -7.37085378	     -8.11911205	      0.48636473	      2.70144192	      3.10610276	      0.05421172	      8.25589541	     -7.50356657	     -7.37085378	    -10.21564182	      0.02752869	      4.08878229	     -1.44503314	    -11.04204699	      9.10236385	     18.73616791	     80.07057637	      1.34067693	     -9.36005742	      7.83436042	     17.83774804	     79.51627489
      0.11666670	      4.65247452	      0.40308015	     -1.92326094	     -0.08011685	      1.35987215	     -0.09984521	     -5.65630816	     -0.98877685	      5.69844076	      3.39888875	      0.05932180	     13.19043473	      1.45638413	     -7.38655156	     -8.38237258	      0.66298916	      2.37142557	      3.29035410	      0.05742751	      8.19437845	     -7.48344159	     -7.38655156	    -10.81894957	     -0.13699121	      4.43513867	     -1.56180746	    -11.09394583	      9.14376474	     19.34063733	     78.54012721	      1.16476256	     -9.42810447	      7.68116479	     18.69226060	     78.00944641
      0.13333330	      4.84514143	      0.46321698	     -2.05490454	     -0.08126124	      1.35750704	     -0.09968113	     -5.87255506	     -1.08530539	      5.84918444	      3.55811682	      0.06210085	     13.25843371	      1.32652292	     -7.40047829	     -8.62993070	      0.76481254	      2.07063605	      3.39278231	      0.05921522	      8.07787920	     -7.37119706	     -7.40047829	    -10.99453934	     -0.22135361	      4.65478512	     -1.36831523	    -11.02389977	      9.71320690	     18.84777032	     77.77389698	      1.51480909	     -9.37515258	      7.95866258	     18.14866425	     77.40913124
      0.15000000	      5.05334886	      0.52490467	     -2.13931861	     -0.08144552	      1.36076203	     -0.09945774	     -6.10835434	     -1.16046501	      6.08322366	      3.54375753	      0.06185024	     13.29245497	      1.09436831	     -7.41992711	     -8.77306916	      0.85932904	      2.12210300	      3.64885593	      0.06368455	      7.99271635	     -7.64295366	     -7.41992711	    -11.32476736	     -0.34811720	      4.78319157	     -1.37024142	    -11.02342423	     10.40966441	     18.98091533	     76.45347386	      1.58644925	     -9.43822146	      8.54567965	     18.29657733	     76.40063356
      0.16666670	      5.15828811	      0.54505259	     -2.20630344	     -0.08197148	      1.36190605	     -0.09928175	     -6.25856875	     -1.18429967	      6.26266026	      3.52863563	      0.06158631	     13.25812103	      0.91556376	     -7.43781232	     -8.78422909	      0.88696597	      2.11894557	      3.89439446	      0.06797001	      7.88604703	     -7.84512481	     -7.43781232	    -11.50866523	     -0.41018441	      4.85373373	     -1.27970566	    -11.02938020	     11.02443690	     18.99910326	     74.70308781	      1.49438745	     -9.44812689	      9.08396682	     18.15918217	     74.89486481
      0.18333330	      5.25461193	      0.49360070	     -2.22819429	     -0.07193688	      1.36107561	     -0.09536889	     -6.47734318	     -1.13870422	      6.31166441	      3.47786254	      0.06070015	     13.34804843	      0.87649965	     -7.43800744	     -9.02441153	      0.81526072	      2.04360923	      4.04563077	      0.07060958	      7.83288002	     -7.91572353	     -7.43800744	    -11.49076584	     -0.43008843	      4.86730164	     -1.52216497	    -10.87585965	     11.06133241	     18.97990453	     74.71902837	      1.17534992	     -9.45320497	      9.11121157	     18.01553293	     74.92194579
      0.20000000	      5.37055603	      0.46342879	     -2.29065384	     -0.08261875	      1.36184897	     -0.09910226	     -6.69994068	     -1.11964404	      6.40490811	      3.31283790	      0.05781993	     13.27784245	      0.88597441	     -7.44174074	     -9.16719817	      0.78341611	      2.28116810	      4.16977394	      0.07277628	      7.64900162	     -8.36570375	     -7.44174074	    -11.67879212	     -0.45918188	      4.83113150	     -1.29614362	    -10.88985408	     11.51415461	     18.84443253	     74.13517652	      1.43839844	     -9.32804851	      9.47524862	     17.27226589	     74.66433206
      0.21666670	      5.40930967	      0.41229473	     -2.37525411	     -0.08256330	      1.35797230	     -0.09900942	     -6.77130383	     -1.06389750	      6.60877551	      3.25323831	      0.05677972	     13.12926547	      0.66410190	     -7.44394160	     -9.16415262	      0.73552942	      2.27555370	      4.29735780	      0.07500304	      7.83084494	     -8.36459903	     -7.44394160	    -11.81146295	     -0.45809418	      4.95730754	     -1.36170034	    -10.97193338	     11.81595346	     19.15212396	     74.06084109	      1.58571816	     -9.26954347	     10.04363755	     16.99477329	     75.15206660
      0.23333330	      5.41739513	      0.38346954	     -2.42157829	     -0.08289741	      1.35832635	     -0.09897898	     -6.77971774	     -1.03800226	      6.70814946	      3.29132407	      0.05744444	     13.10605386	      0.64390028	     -7.45309772	     -9.07035564	      0.70756127	      2.32387420	      4.48646565	      0.07830360	      7.87842331	     -8.63977281	     -7.45309772	    -11.95034147	     -0.45824241	      4.92028473	     -1.15738065	    -11.07898468	     12.04517903	     19.46276231	     72.98744161	      1.65791366	     -9.26079594	     10.41788737	     16.80928297	     74.36317210
      0.25000000	      5.46556304	      0.37812874	     -2.51352781	     -0.08273361	      1.35816161	     -0.09881059	     -6.80914311	     -1.04505823	      6.80816577	      3.31632047	      0.05788071	     13.08564073	      0.59149102	     -7.45839113	     -9.02491294	      0.72737865	      2.34147865	      4.67047754	      0.08151521	      8.03198479	     -8.76556493	     -7.45839113	    -12.19638738	     -0.48856362	      4.91434820	     -1.06996294	    -11.21618206	     12.13349114	     20.07826250	     72.29627936	      1.55826037	     -9.29970021	     10.56427577	     17.14327909	     73.79534532
      0.26666670	      5.51885356	      0.33907495	     -2.63079777	     -0.07341026	      1.35852055	     -0.09507062	     -6.97936317	     -1.01828384	      6.83718642	      3.32688199	      0.05806504	     13.12130941	      0.63454013	     -7.45855429	     -9.08931307	      0.69352739	      2.19700478	      4.85474500	      0.08473128	      8.04381735	     -8.89313028	     -7.45855429	    -12.16542407	     -0.53093171	      4.94928752	     -1.06556481	    -11.18792227	     12.14149263	     20.10915229	     72.31632488	      1.35262000	     -9.30766014	     10.59422562	     16.98360093	     73.84055540
